<?xml version="1.0" standalone="no"?>
<!DOCTYPE svg PUBLIC "-//W3C//DTD SVG 20010904//EN"
 "http://www.w3.org/TR/2001/REC-SVG-20010904/DTD/svg10.dtd">
<svg version="1.0" xmlns="http://www.w3.org/2000/svg"
 width="112.000000pt" height="112.000000pt" viewBox="0 0 112.000000 112.000000"
 preserveAspectRatio="xMidYMid meet">
<metadata>
Created by potrace 1.16, written by Peter Selinger 2001-2019
</metadata>
<g transform="translate(0.000000,112.000000) scale(0.100000,-0.100000)"
fill="#000000" stroke="none">
<path d="M0 560 l0 -560 560 0 560 0 0 560 0 560 -560 0 -560 0 0 -560z m866
499 c-22 -54 -36 -82 -51 -108 -13 -23 -11 -27 25 -68 70 -80 123 -212 120
-302 -2 -64 -3 -63 25 -45 25 16 25 16 25 -18 0 -64 -26 -135 -75 -204 -27
-38 -41 -63 -32 -55 36 29 15 -7 -30 -51 -69 -66 -123 -90 -215 -96 -42 -2
-88 -2 -103 2 -22 6 -24 9 -12 20 7 8 22 16 33 18 13 4 4 9 -28 19 -27 7 -48
16 -48 20 0 4 12 17 28 29 21 17 36 21 66 17 52 -7 134 7 189 32 55 25 68 41
33 41 -34 0 -34 29 -1 68 37 44 76 136 77 179 0 65 -32 152 -87 234 -42 60
-51 80 -41 88 7 6 16 8 20 4 4 -4 4 0 0 10 -9 24 -16 22 -50 -14 -18 -19 -22
-28 -11 -24 33 13 17 -15 -33 -54 -27 -21 -82 -51 -122 -66 -40 -16 -81 -32
-91 -37 -16 -8 -18 -7 -12 12 4 14 3 20 -3 16 -15 -9 -23 -63 -12 -90 6 -16
19 -25 42 -29 18 -2 47 -9 65 -15 l32 -10 -15 24 c-9 13 -21 24 -27 24 -6 0
-7 3 -4 6 4 4 24 -5 46 -19 51 -34 47 -60 -12 -74 l-42 -10 30 -12 c42 -17 16
-31 -60 -31 -69 0 -115 23 -139 67 -15 30 -18 183 -3 183 4 0 24 16 44 35 19
19 52 39 72 46 62 20 174 80 232 124 31 24 65 48 76 54 11 5 35 30 54 55 19
24 35 43 37 41 2 -1 -4 -18 -12 -36z m-441 -49 c-3 -5 0 -10 8 -10 8 0 20 -7
27 -15 7 -8 8 -15 4 -15 -5 0 -9 -14 -9 -31 0 -29 -4 -33 -45 -45 -59 -18 -60
-18 -60 7 0 20 -1 20 -31 2 -17 -10 -45 -35 -62 -57 -30 -38 -30 -38 -6 -31
13 4 39 13 57 21 27 11 32 11 32 -1 0 -8 -5 -17 -11 -21 -6 -3 -9 -15 -6 -25
3 -13 -5 -30 -25 -49 -57 -57 -73 -169 -38 -262 23 -61 21 -72 -6 -23 -10 19
-22 35 -27 35 -13 0 -37 67 -37 105 0 32 -2 35 -29 35 -16 0 -31 -6 -34 -12
-9 -26 -16 0 -8 28 5 16 14 52 20 79 30 132 118 242 221 276 65 21 73 22 65 9z"/>
</g>
</svg>
